<svg width="75" height="75" viewBox="0 0 75 75" fill="none" xmlns="http://www.w3.org/2000/svg">
<g clip-path="url(#clip0_16096_12620)">
<path fill-rule="evenodd" clip-rule="evenodd" d="M36.8005 2.44226C17.8108 2.44226 2.44238 16.4307 2.44238 37.4999C2.44238 38.0522 1.99467 38.4999 1.44238 38.4999C0.890098 38.4999 0.442383 38.0522 0.442383 37.4999C0.442383 15.3 16.7326 0.442261 36.8005 0.442261C53.0327 0.442261 66.2687 9.07011 70.8992 22.7564C71.0762 23.2795 70.7956 23.8471 70.2725 24.0241C69.7493 24.2011 69.1817 23.9205 69.0047 23.3974C64.693 10.6533 52.3208 2.44226 36.8005 2.44226ZM73.5578 36.4999C74.11 36.4999 74.5578 36.9477 74.5578 37.4999C74.5578 59.6999 58.2676 74.5576 38.1996 74.5576C21.9711 74.5576 8.73147 65.9298 4.1009 52.2435C3.9239 51.7204 4.20451 51.1528 4.72766 50.9758C5.25082 50.7988 5.8184 51.0794 5.9954 51.6025C10.3071 64.3465 22.6829 72.5576 38.1996 72.5576C57.1893 72.5576 72.5578 58.5692 72.5578 37.4999C72.5578 36.9477 73.0055 36.4999 73.5578 36.4999Z" fill="black"/>
<path fill-rule="evenodd" clip-rule="evenodd" d="M73.2713 14.5352C73.7997 14.6956 74.0981 15.2541 73.9377 15.7826L71.4857 23.8595C71.4028 24.1327 71.2071 24.3574 70.9478 24.477C70.6886 24.5966 70.3906 24.5997 70.1289 24.4855L62.1962 21.024C61.69 20.8031 61.4587 20.2137 61.6796 19.7075C61.9005 19.2013 62.4899 18.97 62.9961 19.1909L69.8985 22.2029L72.0239 15.2016C72.1843 14.6731 72.7428 14.3748 73.2713 14.5352ZM4.7944 50.9208C5.05335 50.8085 5.3477 50.8108 5.60482 50.9272L13.2491 54.3888C13.7522 54.6166 13.9753 55.2091 13.7475 55.7122C13.5197 56.2154 12.9271 56.4385 12.424 56.2107L5.78482 53.2043L3.39891 60.2364C3.22146 60.7594 2.65364 61.0396 2.13064 60.8621C1.60763 60.6847 1.32751 60.1168 1.50495 59.5938L4.24534 51.5169C4.33603 51.2496 4.53545 51.0331 4.7944 50.9208Z" fill="black"/>
<path fill-rule="evenodd" clip-rule="evenodd" d="M35.4341 13.2922L33.6626 18.3678C33.5533 18.6809 33.2959 18.9195 32.9754 19.0047C31.4151 19.4195 29.9126 20.0276 28.5029 20.8148C28.2129 20.9768 27.8615 20.9841 27.565 20.8345L22.7644 18.4127C21.2562 19.5891 19.8875 20.9341 18.6851 22.4217L21.0208 27.2657C21.165 27.5647 21.1514 27.9158 20.9845 28.2028C20.1817 29.5831 19.5441 31.0729 19.0967 32.6405C19.0058 32.9591 18.7631 33.2119 18.4486 33.3157L13.3427 35.0011C13.1088 36.8991 13.0921 38.8176 13.2927 40.7195L18.3684 42.491C18.681 42.6001 18.9194 42.8569 19.0049 43.1769C19.422 44.7374 20.0303 46.2405 20.816 47.6518C20.9774 47.9416 20.9845 48.2925 20.8351 48.5886L18.4133 53.3892C19.5896 54.8974 20.9347 56.2661 22.4222 57.4685L27.2663 55.1328C27.5649 54.9888 27.9154 55.0022 28.2022 55.1685C29.5988 55.9783 31.09 56.6127 32.642 57.0571C32.9601 57.1482 33.2126 57.3908 33.3163 57.705L35.0017 62.8109C36.9008 63.0451 38.8204 63.0618 40.7233 62.861L42.4913 57.7858C42.6005 57.4724 42.858 57.2336 43.1787 57.1483C44.7391 56.7335 46.2416 56.1254 47.6512 55.3382C47.9412 55.1763 48.2927 55.1689 48.5892 55.3185L53.3897 57.7403C54.898 56.564 56.2667 55.2189 57.4691 53.7314L55.1334 48.8873C54.9894 48.5887 55.0027 48.2381 55.169 47.9514C55.9789 46.5548 56.6132 45.0636 57.0577 43.5116C57.1488 43.1935 57.3914 42.941 57.7056 42.8373L62.8115 41.1519C63.0456 39.2528 63.0624 37.3332 62.8615 35.4303L57.7864 33.6623C57.4729 33.5531 57.2341 33.2954 57.1488 32.9746C56.7299 31.3974 56.1172 29.8972 55.3386 28.5021C55.1768 28.2122 55.1695 27.8608 55.319 27.5644L57.741 22.7635C56.5657 21.2553 55.2195 19.8856 53.7322 18.6843L48.8879 21.0202C48.5889 21.1644 48.2378 21.1508 47.9508 20.9839C46.5705 20.1811 45.0807 19.5436 43.513 19.0962C43.1945 19.0053 42.9417 18.7625 42.8379 18.448L41.1525 13.342C40.1455 13.2179 39.1176 13.1538 38.0771 13.1538H38.0768C37.1939 13.1535 36.3118 13.1998 35.4341 13.2922ZM38.0771 11.1538C36.9034 11.1535 35.7309 11.2292 34.567 11.3807C34.1919 11.4295 33.8765 11.6857 33.7519 12.0428L31.9464 17.2157C30.5807 17.6156 29.2583 18.1508 27.9988 18.8133L23.1072 16.3455C22.7697 16.1753 22.3649 16.2099 22.0612 16.435C20.0463 17.9288 18.2488 19.6953 16.7202 21.6838C16.4898 21.9834 16.4481 22.3872 16.6122 22.7276L18.9922 27.6635C18.3137 28.9004 17.7539 30.2119 17.3264 31.58L12.1224 33.2978C11.7634 33.4162 11.502 33.727 11.4466 34.1009C11.0795 36.5812 11.0575 39.1004 11.3812 41.5867C11.4301 41.9617 11.6863 42.2771 12.0433 42.4017L17.217 44.2074C17.6182 45.5724 18.1532 46.8944 18.8142 48.1541L16.3461 53.0464C16.1758 53.3839 16.2105 53.7887 16.4356 54.0924C17.9294 56.1072 19.6959 57.9048 21.6844 59.4334C21.984 59.6637 22.3878 59.7055 22.7282 59.5414L27.6647 57.161C28.912 57.8437 30.2235 58.4016 31.5804 58.8266L33.2983 64.0312C33.4168 64.3901 33.7275 64.6516 34.1014 64.707C36.583 65.0745 39.1035 65.0965 41.591 64.7723C41.9662 64.7235 42.2817 64.467 42.4062 64.1097L44.2081 58.9372C45.5737 58.5373 46.896 58.0022 48.1554 57.3397L53.047 59.8075C53.3845 59.9778 53.7892 59.9431 54.0929 59.718C56.1078 58.2242 57.9054 56.4577 59.434 54.4692C59.6643 54.1696 59.7061 53.7658 59.5419 53.4254L57.1616 48.4889C57.8442 47.2416 58.4021 45.93 58.8272 44.5732L64.0318 42.8553C64.3907 42.7368 64.6522 42.4261 64.7075 42.0522C65.075 39.5706 65.097 37.0501 64.7729 34.5625C64.724 34.1874 64.4676 33.8719 64.1103 33.7474L58.9379 31.9455C58.5345 30.5676 57.9966 29.2466 57.3402 27.9983L59.808 23.1066C59.9782 22.7693 59.9437 22.3648 59.7189 22.0611C58.2266 20.0458 56.4576 18.2461 54.4693 16.7193C54.1698 16.4892 53.7662 16.4476 53.426 16.6117L48.4901 18.9917C47.2532 18.3132 45.9417 17.7533 44.5736 17.3259L42.8558 12.1218C42.7374 11.763 42.4268 11.5015 42.053 11.4461C40.7567 11.2538 39.4264 11.1538 38.0774 11.1538" fill="black"/>
<path fill-rule="evenodd" clip-rule="evenodd" d="M38.0768 27.9667C32.4933 27.9667 27.967 32.493 27.967 38.0764C27.967 43.6599 32.4933 48.1861 38.0768 48.1861C43.6602 48.1861 48.1865 43.6599 48.1865 38.0764C48.1865 32.493 43.6602 27.9667 38.0768 27.9667ZM25.967 38.0764C25.967 31.3884 31.3888 25.9667 38.0768 25.9667C44.7648 25.9667 50.1865 31.3884 50.1865 38.0764C50.1865 44.7644 44.7648 50.1861 38.0768 50.1861C31.3888 50.1861 25.967 44.7644 25.967 38.0764Z" fill="black"/>
<path fill-rule="evenodd" clip-rule="evenodd" d="M42.7071 35.2929C43.0976 35.6834 43.0976 36.3166 42.7071 36.7071L37.7071 41.7071C37.3166 42.0976 36.6834 42.0976 36.2929 41.7071L33.2929 38.7071C32.9024 38.3166 32.9024 37.6834 33.2929 37.2929C33.6834 36.9024 34.3166 36.9024 34.7071 37.2929L37 39.5858L41.2929 35.2929C41.6834 34.9024 42.3166 34.9024 42.7071 35.2929Z" fill="black"/>
</g>
<defs>
<clipPath id="clip0_16096_12620">
<rect width="75" height="75" fill="white"/>
</clipPath>
</defs>
</svg>
