<svg width="75" height="75" viewBox="0 0 75 75" fill="none" xmlns="http://www.w3.org/2000/svg">
<g clip-path="url(#clip0_16096_12628)">
<path fill-rule="evenodd" clip-rule="evenodd" d="M37.5 72.5C56.83 72.5 72.5 56.83 72.5 37.5C72.5 18.17 56.83 2.5 37.5 2.5C18.17 2.5 2.5 18.17 2.5 37.5C2.5 56.83 18.17 72.5 37.5 72.5ZM37.5 75C58.2107 75 75 58.2107 75 37.5C75 16.7893 58.2107 0 37.5 0C16.7893 0 0 16.7893 0 37.5C0 58.2107 16.7893 75 37.5 75Z" fill="black"/>
<path fill-rule="evenodd" clip-rule="evenodd" d="M22.425 17C20.9862 17 19.6063 17.5716 18.589 18.589C17.5716 19.6063 17 20.9862 17 22.425C17 23.8638 17.5716 25.2437 18.589 26.2611C19.6063 27.2785 20.9862 27.85 22.425 27.85C23.8638 27.85 25.2437 27.2785 26.2611 26.2611C27.2785 25.2437 27.85 23.8638 27.85 22.425C27.85 20.9862 27.2785 19.6063 26.2611 18.589C25.2437 17.5716 23.8638 17 22.425 17ZM17.1747 17.1747C18.5672 15.7823 20.4558 15 22.425 15C24.3943 15 26.2828 15.7823 27.6753 17.1747C29.0678 18.5672 29.85 20.4558 29.85 22.425C29.85 24.3943 29.0678 26.2828 27.6753 27.6753C26.2828 29.0678 24.3943 29.85 22.425 29.85C20.4558 29.85 18.5672 29.0678 17.1747 27.6753C15.7823 26.2828 15 24.3943 15 22.425C15 20.4558 15.7823 18.5672 17.1747 17.1747ZM52.4085 17C50.9697 17 49.5898 17.5716 48.5724 18.589C47.555 19.6063 46.9834 20.9862 46.9834 22.425C46.9834 23.8638 47.555 25.2437 48.5724 26.2611C49.5898 27.2785 50.9697 27.85 52.4085 27.85C53.8473 27.85 55.2272 27.2785 56.2445 26.2611C57.2619 25.2437 57.8335 23.8638 57.8335 22.425C57.8335 20.9862 57.2619 19.6063 56.2445 18.589C55.2272 17.5716 53.8473 17 52.4085 17ZM47.1582 17.1747C48.5507 15.7823 50.4392 15 52.4085 15C54.3777 15 56.2663 15.7823 57.6588 17.1747C59.0512 18.5672 59.8335 20.4558 59.8335 22.425C59.8335 24.3943 59.0512 26.2828 57.6588 27.6753C56.2663 29.0678 54.3777 29.85 52.4085 29.85C50.4392 29.85 48.5507 29.0678 47.1582 27.6753C45.7657 26.2828 44.9834 24.3943 44.9834 22.425C44.9834 20.4558 45.7657 18.5672 47.1582 17.1747ZM22.425 46.9834C20.9862 46.9834 19.6063 47.555 18.589 48.5724C17.5716 49.5898 17 50.9697 17 52.4085C17 53.8473 17.5716 55.2272 18.589 56.2445C19.6063 57.2619 20.9862 57.8335 22.425 57.8335C23.8638 57.8335 25.2437 57.2619 26.2611 56.2445C27.2785 55.2272 27.85 53.8473 27.85 52.4085C27.85 50.9697 27.2785 49.5898 26.2611 48.5724C25.2437 47.555 23.8638 46.9834 22.425 46.9834ZM17.1747 47.1582C18.5672 45.7657 20.4558 44.9834 22.425 44.9834C24.3943 44.9834 26.2828 45.7657 27.6753 47.1582C29.0678 48.5507 29.85 50.4392 29.85 52.4085C29.85 54.3777 29.0678 56.2663 27.6753 57.6588C26.2828 59.0512 24.3943 59.8335 22.425 59.8335C20.4558 59.8335 18.5672 59.0512 17.1747 57.6588C15.7823 56.2663 15 54.3777 15 52.4085C15 50.4392 15.7823 48.5507 17.1747 47.1582ZM52.4085 46.9834C50.9697 46.9834 49.5898 47.555 48.5724 48.5724C47.555 49.5898 46.9834 50.9697 46.9834 52.4085C46.9834 53.8473 47.555 55.2272 48.5724 56.2445C49.5898 57.2619 50.9697 57.8335 52.4085 57.8335C53.8473 57.8335 55.2272 57.2619 56.2445 56.2445C57.2619 55.2272 57.8335 53.8473 57.8335 52.4085C57.8335 50.9697 57.2619 49.5898 56.2445 48.5724C55.2272 47.555 53.8473 46.9834 52.4085 46.9834ZM47.1582 47.1582C48.5507 45.7657 50.4392 44.9834 52.4085 44.9834C54.3777 44.9834 56.2663 45.7657 57.6588 47.1582C59.0512 48.5507 59.8335 50.4392 59.8335 52.4085C59.8335 54.3777 59.0512 56.2663 57.6588 57.6588C56.2663 59.0512 54.3777 59.8335 52.4085 59.8335C50.4392 59.8335 48.5507 59.0512 47.1582 57.6588C45.7657 56.2663 44.9834 54.3777 44.9834 52.4085C44.9834 50.4392 45.7657 48.5507 47.1582 47.1582Z" fill="black"/>
<path fill-rule="evenodd" clip-rule="evenodd" d="M27.8501 22.425C27.8501 21.8728 28.2978 21.425 28.8501 21.425H45.9835C46.5358 21.425 46.9835 21.8728 46.9835 22.425C46.9835 22.9773 46.5358 23.425 45.9835 23.425H28.8501C28.2978 23.425 27.8501 22.9773 27.8501 22.425ZM22.425 27.8501C22.9773 27.8501 23.425 28.2978 23.425 28.8501V45.9835C23.425 46.5358 22.9773 46.9835 22.425 46.9835C21.8728 46.9835 21.425 46.5358 21.425 45.9835V28.8501C21.425 28.2978 21.8728 27.8501 22.425 27.8501ZM52.4085 27.8501C52.9608 27.8501 53.4085 28.2978 53.4085 28.8501V30.9917C53.4085 31.544 52.9608 31.9917 52.4085 31.9917C51.8562 31.9917 51.4085 31.544 51.4085 30.9917V28.8501C51.4085 28.2978 51.8562 27.8501 52.4085 27.8501ZM52.4085 38.5584C52.9608 38.5584 53.4085 39.0062 53.4085 39.5584V45.9835C53.4085 46.5358 52.9608 46.9835 52.4085 46.9835C51.8562 46.9835 51.4085 46.5358 51.4085 45.9835V39.5584C51.4085 39.0062 51.8562 38.5584 52.4085 38.5584ZM27.8501 52.4085C27.8501 51.8562 28.2978 51.4085 28.8501 51.4085H33.1334C33.6857 51.4085 34.1334 51.8562 34.1334 52.4085C34.1334 52.9608 33.6857 53.4085 33.1334 53.4085H28.8501C28.2978 53.4085 27.8501 52.9608 27.8501 52.4085ZM38.5584 52.4085C38.5584 51.8562 39.0062 51.4085 39.5584 51.4085H45.9835C46.5358 51.4085 46.9835 51.8562 46.9835 52.4085C46.9835 52.9608 46.5358 53.4085 45.9835 53.4085H39.5584C39.0062 53.4085 38.5584 52.9608 38.5584 52.4085Z" fill="black"/>
</g>
<defs>
<clipPath id="clip0_16096_12628">
<rect width="75" height="75" fill="white"/>
</clipPath>
</defs>
</svg>
