<svg width="75" height="75" viewBox="0 0 75 75" fill="none" xmlns="http://www.w3.org/2000/svg">
<g clip-path="url(#clip0_16096_12613)">
<path fill-rule="evenodd" clip-rule="evenodd" d="M37.5 73C57.1061 73 73 57.1061 73 37.5C73 17.8939 57.1061 2 37.5 2C17.8939 2 2 17.8939 2 37.5C2 57.1061 17.8939 73 37.5 73ZM37.5 75C58.2107 75 75 58.2107 75 37.5C75 16.7893 58.2107 0 37.5 0C16.7893 0 0 16.7893 0 37.5C0 58.2107 16.7893 75 37.5 75Z" fill="black"/>
<path fill-rule="evenodd" clip-rule="evenodd" d="M22 43C19.7909 43 18 44.7909 18 47C18 49.2091 19.7909 51 22 51C24.2091 51 26 49.2091 26 47C26 44.7909 24.2091 43 22 43ZM16 47C16 43.6863 18.6863 41 22 41C25.3137 41 28 43.6863 28 47C28 50.3137 25.3137 53 22 53C18.6863 53 16 50.3137 16 47Z" fill="black"/>
<path fill-rule="evenodd" clip-rule="evenodd" d="M36.9999 27.9338V24H38.9999V27.9338L46.4999 32.4338V41.382L49.9472 43.1056L49.0527 44.8944L45.5437 43.1399L37.9999 47.6662L30.4562 43.1399L26.9472 44.8944L26.0527 43.1056L29.4999 41.382V32.4338L36.9999 27.9338ZM37.9999 29.6662L31.4999 33.5662V41.4338L37.9999 45.3338L44.4999 41.4338V33.5662L37.9999 29.6662Z" fill="black"/>
<path fill-rule="evenodd" clip-rule="evenodd" d="M54 43C51.7909 43 50 44.7909 50 47C50 49.2091 51.7909 51 54 51C56.2091 51 58 49.2091 58 47C58 44.7909 56.2091 43 54 43ZM48 47C48 43.6863 50.6863 41 54 41C57.3137 41 60 43.6863 60 47C60 50.3137 57.3137 53 54 53C50.6863 53 48 50.3137 48 47Z" fill="black"/>
<path fill-rule="evenodd" clip-rule="evenodd" d="M38 14.5C35.7909 14.5 34 16.2909 34 18.5C34 20.7091 35.7909 22.5 38 22.5C40.2091 22.5 42 20.7091 42 18.5C42 16.2909 40.2091 14.5 38 14.5ZM32 18.5C32 15.1863 34.6863 12.5 38 12.5C41.3137 12.5 44 15.1863 44 18.5C44 21.8137 41.3137 24.5 38 24.5C34.6863 24.5 32 21.8137 32 18.5Z" fill="black"/>
</g>
<defs>
<clipPath id="clip0_16096_12613">
<rect width="75" height="75" fill="white"/>
</clipPath>
</defs>
</svg>
